<svg width="60" height="60" viewBox="0 0 60 60" fill="none" xmlns="http://www.w3.org/2000/svg">
<path fill-rule="evenodd" clip-rule="evenodd" d="M48.836 19.7251C48.943 20.1321 49 20.5594 49 21V39C49 41.7614 46.7614 44 44 44H16C13.2386 44 11 41.7614 11 39V21C11 18.2386 13.2386 16 16 16H44C45.5673 16 46.9663 16.7211 47.883 17.8497C48.3237 18.3923 48.653 19.0291 48.836 19.7251ZM16 18H44C45.0155 18 45.9132 18.5046 46.456 19.2767L33.5356 32.1971C31.583 34.1498 28.4171 34.1498 26.4645 32.1971L13.5441 19.2767C14.0868 18.5046 14.9845 18 16 18ZM13 21.561V39C13 40.6569 14.3431 42 16 42H44C45.6569 42 47 40.6569 47 39V21.5612L34.9498 33.6114C32.2161 36.345 27.784 36.345 25.0503 33.6114L13 21.561Z" fill="white"/>
</svg>
